<?xml version="1.0" encoding="UTF-8" standalone="no" ?>
<!DOCTYPE svg PUBLIC "-//W3C//DTD SVG 1.1//EN" "http://www.w3.org/Graphics/SVG/1.1/DTD/svg11.dtd">
<svg xmlns="http://www.w3.org/2000/svg" xmlns:xlink="http://www.w3.org/1999/xlink" version="1.1" width="256" height="256" viewBox="0 0 500 500" xml:space="preserve">
<desc>Created with Fabric.js 4.6.0</desc>
<defs>
</defs>
<g transform="matrix(0.88 0 0 0.88 250 244.53)" id="7LiEnvQNztVJuOnoWLW1o"  >
<path style="stroke: none; stroke-width: 1; stroke-dasharray: none; stroke-linecap: butt; stroke-dashoffset: 0; stroke-linejoin: miter; stroke-miterlimit: 4; fill: rgb(255,255,255); fill-rule: nonzero; opacity: 1;" vector-effect="non-scaling-stroke"  transform=" translate(-350, -280)" d="M 520.24 14 L 179.76 14 C 127.119 14 83.99799999999999 57.121 83.99799999999999 109.762 L 83.99799999999999 450.242 C 83.99799999999999 502.88300000000004 127.119 546.004 179.76 546.004 L 520.24 546.004 C 572.881 546.004 616.002 502.88300000000004 616.002 450.242 L 615.9980939999999 109.762 C 615.9980939999999 57.121 572.8770939999999 14 520.2360939999999 14 z M 212.24 280.56 C 207.20090000000002 280.56 202.162 278.8803 198.24 274.9584 C 190.4002 267.11859999999996 190.4002 254.7984 198.24 246.95839999999998 L 222.318 222.88039999999998 L 198.24 198.80239999999998 C 190.4002 190.96259999999998 190.4002 178.64239999999998 198.24 170.80239999999998 C 206.0798 162.96259999999998 218.4 162.96259999999998 226.24 170.80239999999998 L 250.318 194.88039999999998 L 274.396 170.80239999999998 C 282.23580000000004 162.96259999999998 294.55600000000004 162.96259999999998 302.396 170.80239999999998 C 310.23580000000004 178.64219999999997 310.23580000000004 190.96239999999997 302.396 198.80239999999998 L 278.31800000000004 222.88039999999998 L 302.396 246.95839999999998 C 310.23580000000004 254.79819999999998 310.23580000000004 267.1184 302.396 274.9584 C 298.4741 278.8803 293.43510000000003 280.56 288.396 280.56 C 283.3569 280.56 278.31800000000004 278.8803 274.396 274.9584 L 250.318 250.88039999999998 L 226.24 274.4004 C 222.322 278.3223 217.28300000000002 280.56059999999997 212.24 280.56059999999997 z M 428.4 411.03999999999996 L 271.59999999999997 411.03999999999996 C 258.159 411.03999999999996 247.52199999999996 400.39899999999994 247.52199999999996 386.962 C 247.52199999999996 373.521 258.16299999999995 362.884 271.59999999999997 362.884 L 428.4 362.88009400000004 C 441.84099999999995 362.88009400000004 452.47799999999995 373.52109400000006 452.47799999999995 386.958094 C 452.481907 400.399094 441.28299999999996 411.040094 428.4 411.040094 z M 501.763 246.39999999999998 C 509.6028 254.23979999999997 509.6028 266.56 501.763 274.4 C 497.8411 278.32189999999997 492.8021 280.0016 487.763 280.0016 C 482.72389999999996 280.0016 477.685 278.32189999999997 473.763 274.4 L 449.685 250.32199999999997 L 425.603 274.4 C 421.6811 278.32189999999997 416.6421 280.0016 411.603 280.0016 C 406.5639 280.0016 401.52500000000003 278.32189999999997 397.603 274.4 C 389.7632 266.56019999999995 389.7632 254.23999999999998 397.603 246.39999999999998 L 421.681 222.32199999999997 L 397.603 198.24399999999997 C 389.7632 190.40419999999997 389.7632 178.08399999999997 397.603 170.24399999999997 C 405.44280000000003 162.40419999999997 417.76300000000003 162.40419999999997 425.603 170.24399999999997 L 449.681 194.32199999999997 L 473.75899999999996 170.24399999999997 C 481.5988 162.40419999999997 493.919 162.40419999999997 501.75899999999996 170.24399999999997 C 509.5988 178.08379999999997 509.5988 190.40399999999997 501.75899999999996 198.24399999999997 L 477.681 222.32199999999997 z" stroke-linecap="round" />
</g>
</svg>